name processed_emg_signals
nRows=65
nColumns=7
 
endheader
time	LGLTMED	LRF	LADDLONG	LST	LTA	LGM
0.97	0.0268322965357899	0.0221884213611903	0.0357192120099584	0.0322546407271281	0.1973991932959162	0.0382630105474974
0.971	0.026791676192707	0.02218227135865	0.0357919791810928	0.0324245050843437	0.196420384633561	0.0381608277346402
0.972	0.0267506427550945	0.0221755503855081	0.0358660682646112	0.032581539426309	0.1954418648902049	0.03805172877153
0.973	0.0267092184122445	0.0221682403757326	0.0359411901195253	0.0327251935841042	0.1944645791665052	0.0379360725471621
0.974	0.0266674263264236	0.0221603247797793	0.0360170530635647	0.0328549215694298	0.1934894315774836	0.0378142146135075
0.975	0.0266252906912904	0.0221517885650033	0.0360933634841769	0.0329701824223838	0.192517284559584	0.0376865068227674
0.976	0.0265828367888534	0.0221426182141727	0.036169826456045	0.0330704410753934	0.1915489582703852	0.0375532969826033
0.977	0.0265400910446923	0.0221328017222412	0.0362461463637691	0.0331551692326375	0.1905852300800029	0.0374149285287922
0.978	0.0264970810811255	0.0221223285914935	0.0363220275282486	0.0332238462643171	0.1896268341529181	0.0372717402147664
0.979	0.0264538357681035	0.022111189825213	0.0363971748352074	0.0332759601150804	0.1886744611185613	0.0371240658174763
0.98	0.0264103852715876	0.0220993779199265	0.0364712943642382	0.0333110082259064	0.1877287578287155	0.0369722338590355
0.981	0.026366761099242	0.0220868868562769	0.0365440940166499	0.0333284984686756	0.1867903271996542	0.0368165673436846
0.982	0.0263229961432551	0.0220737120884814	0.0366152841403507	0.0333279500926815	0.1858597281368758	0.0366573835096723
0.983	0.0262791247201412	0.0220598505323387	0.0366845781499198	0.0333088946822764	0.1849374755404668	0.036494993595734
0.984	0.0262351826073238	0.0220453005517066	0.0367516931400002	0.0332708771248594	0.1840240403893101	0.0363297026219276
0.985	0.0261912070763009	0.0220300619434045	0.0368163504900617	0.0332134565883878	0.1831198499024159	0.0361618091846382
0.986	0.0261472369222512	0.0220141359204925	0.0368782764585826	0.0331362075075729	0.1822252877757426	0.0359916052655668
0.987	0.0261033124899267	0.0219975250939111	0.0369372027646371	0.0330387205778706	0.1813406944927177	0.0358193760545818
0.988	0.0260594756958089	0.0219802334525299	0.0369928671548997	0.0329206037562824	0.1804663677065819	0.0356453997862898
0.989	0.026015770046489	0.0219622663416784	0.0370450139540118	0.0327814832679884	0.17960256269253	0.0354699475902448
0.99	0.0259722406533085	0.021943630440273	0.0370933945963141	0.0326210046177208	0.1787494928676839	0.0352932833546933
0.991	0.0259289342433383	0.0219243337366422	0.0371377681369113	0.0324388336047581	0.177907330377123	0.0351156636037866
0.992	0.0258858991667589	0.0219043855031429	0.0371779017399874	0.0322346573403628	0.1770762067442697	0.0349373373881839
0.993	0.0258431854008278	0.0218837962696349	0.0372135711424002	0.0320081852664587	0.1762562135838502	0.0347585461889707
0.994	0.0258008445505546	0.0218625777958158	0.0372445610906439	0.0317591501742554	0.1754474033754232	0.0345795238347811
0.995	0.0257589298462853	0.0218407430424394	0.0372706657495677	0.0314873092215358	0.1746497902951252	0.0344004964320054
0.996	0.0257174961383603	0.0218183061413559	0.0372916890814456	0.0311924449472615	0.1738633511030522	0.0342216823079285
0.997	0.0256765998889623	0.0217952823643147	0.037307445194308	0.0308743662821347	0.173088026083535	0.0340432919666049
0.998	0.0256362991612742	0.0217716880904697	0.0373177586586827	0.0305329095537457	0.1723237200354894	0.033865528057279
0.999	0.0255966536060302	0.0217475407724892	0.0373224647921532	0.0301679394849502	0.1715703033101236	0.0336885853551282
1.0	0.0255577244455052	0.0217228589012502	0.0373214099112902	0.0297793501840778	0.1708276128934468	0.0335126507540717
1.0010000000000001	0.025519574455081	0.0216976619690779	0.0373144515506956	0.029367066125567	0.1700954535313056	0.0333379032713419
1.002	0.0254822679424549	0.0216719704315496	0.0373014586489717	0.0289310431195831	0.1693735988950036	0.0331645140634792
1.0030000000000001	0.0254458707246217	0.0216458056678781	0.0372823117015732	0.0284712692691782	0.1686617927858921	0.0329926464533979
1.004	0.0254104501026406	0.0216191899398786	0.0372569028805994	0.0279877659135158	0.1679597503775098	0.0328224559681637
1.0050000000000001	0.0253760748342151	0.0215921463495238	0.0372251361217169	0.0274805885557158	0.1672671594938576	0.0326540903871311
1.006	0.0253428151040009	0.0215646987951143	0.0371869271785847	0.0269498277738653	0.1665836819223044	0.032487689800005
1.0070000000000001	0.025310742491554	0.0215368719260844	0.0371422036452314	0.0263956101137276	0.1659089547593772	0.0323233866743979
1.008	0.0252799299367653	0.0215086910965215	0.0370909049470248	0.0258180989616752	0.1652425917872648	0.0321613059324147
1.0090000000000001	0.0252504517026292	0.0214801823174501	0.0370329823010597	0.0252174953963567	0.1645841848784673	0.0320015650357965
1.01	0.0252223833351316	0.0214513722079493	0.0369683986469938	0.0245940390175854	0.1639333054255275	0.0318442740792166
1.0110000000000001	0.0251958016200534	0.0214222879451819	0.0368971285495655	0.0239480087509575	0.1632895057923898	0.0316895358913547
1.012	0.0251707845364328	0.0213929572133854	0.0368191580742153	0.0232797236266969	0.1626523207835708	0.0315374461433971
1.0130000000000001	0.0251474112065029	0.0213634081518728	0.0367344846373114	0.0225895435312277	0.1620212691271509	0.0313880934645989
1.014	0.0251257618419282	0.0213336693020817	0.0366431168324956	0.0218778699299732	0.1613958549674906	0.0312415595645117
1.0150000000000001	0.0251059176862347	0.0213037695537028	0.036545074234621	0.0211451465598868	0.1607755693636185	0.0310979193614631
1.016	0.0250879609533536	0.02127373808996	0.0364403871826828	0.0203918600902154	0.1601598917892356	0.0309572411168515
1.0170000000000001	0.0250719747622039	0.0212436043321039	0.0363290965430557	0.019618540749956	0.1595482916303705	0.0308195865748438
1.018	0.025058043067178	0.0212133978832028	0.0362112534543141	0.018825762920513	0.1589402296768792	0.0306850111070236
1.0190000000000001	0.0250462505843503	0.0211831484713166	0.0360869190548583	0.0180141456919948	0.158335159604352	0.030553563861558
1.02	0.0250366827131899	0.021152885892179	0.0359561641945666	0.017184353381595	0.1577325294435831	0.0304252879164094
1.0210000000000001	0.0250294254535545	0.0211226399514956	0.0358190691317389	0.01633709601244	0.1571317830355662	0.0303002204361453
1.022	0.025024565317778	0.021092440407041	0.0356757232165721	0.015473129751303	0.15653236147077	0.0301783928318987
1.0230000000000001	0.0250221892377055	0.0210623169106931	0.0355262245624714	0.0145932573035708	0.1559337045119623	0.0300598309240556
1.024	0.025022384466548	0.0210322989506354	0.0353706797064279	0.0136983282638311	0.1553352520000401	0.0299445551072326
1.025	0.0250252384754547	0.0210024157939531	0.0352092032596678	0.0127892394205449	0.1547364452421679	0.0298325805170782
1.026	0.0250308388447074	0.0209726964298642	0.0350419175497223	0.011866935013195	0.1541367283811708	0.0297239171985058
1.027	0.0250392731494416	0.0209431695138663	0.0348689522549563	0.0109324069403503	0.1535355497447111	0.0296185702749284
1.028	0.0250506288398425	0.0209138633130533	0.0346904440325813	0.0099866949170437	0.1529323631723239	0.0295165401181765
1.029	0.025064993115722	0.0208848056529069	0.0345065361410611	0.009030886579852	0.1523266293179979	0.0294178225187276
1.03	0.0250824527954613	0.0208560238658107	0.0343173780579123	0.0080661175380572	0.1517178169257012	0.0293224088558938
1.031	0.0251030941792076	0.0208275447415708	0.0341231250938573	0.0070935713692456	0.1511054040750485	0.0292302862675535
1.032	0.0251270029062452	0.0207993944801733	0.03392393800443	0.0061144795577052	0.1504888793941359	0.0291414378190274
1.033	0.0251542638064451	0.0207715986470141	0.033719982600116	0.005130121374029	0.1498677432364954	0.0290558426707251
1.034	0.0251849607456944	0.0207441821307487	0.0335114293561225	0.0041418236942796	0.1492415088190135	0.0289734762442056
